Coordinates
version=1
nRows=6
nColumns=63
inDegrees=yes

Units are S.I. units (second, meters, Newtons, ...)
If the header above contains a line with 'inDegrees', this indicates whether rotational values are in degrees (yes) or radians (no).

endheader
time	pelvis_tilt	pelvis_list	pelvis_rotation	pelvis_tx	pelvis_ty	pelvis_tz	hip_flexion_r	hip_adduction_r	hip_rotation_r	knee_angle_r	knee_angle_r_beta	ankle_angle_r	subtalar_angle_r	mtp_angle_r	hip_flexion_l	hip_adduction_l	hip_rotation_l	knee_angle_l	knee_angle_l_beta	ankle_angle_l	subtalar_angle_l	mtp_angle_l	L5_S1_Flex_Ext	L5_S1_Lat_Bending	L5_S1_axial_rotation	L4_L5_Flex_Ext	L4_L5_Lat_Bending	L4_L5_axial_rotation	L3_L4_Flex_Ext	L3_L4_Lat_Bending	L3_L4_axial_rotation	L2_L3_Flex_Ext	L2_L3_Lat_Bending	L2_L3_axial_rotation	L1_L2_Flex_Ext	L1_L2_Lat_Bending	L1_L2_axial_rotation	L1_T12_Flex_Ext	L1_T12_Lat_Bending	L1_T12_axial_rotation	Abs_r3	Abs_r2	Abs_r1	Abs_t1	Abs_t2	neck_flexion	neck_bending	neck_rotation	arm_flex_r	arm_add_r	arm_rot_r	elbow_flex_r	pro_sup_r	wrist_flex_r	wrist_dev_r	arm_flex_l	arm_add_l	arm_rot_l	elbow_flex_l	pro_sup_l	wrist_flex_l	wrist_dev_l
      3.76666667	     -1.01453724	     -0.41469180	     99.76826958	      0.27453451	      0.62583344	      0.96529536	      3.69888953	     -0.80811614	     -3.21915567	      7.18209892	      0.12535127	     23.01502932	      3.36816900	      0.00000000	      3.09830835	     -0.50995010	     -3.76120986	      5.39891557	      0.09422885	     21.85147287	      9.64280643	      0.00000000	     -0.07918550	     -0.43166192	      0.09924931	     -0.14705540	     -0.57411035	      0.10545239	     -0.13009387	     -1.04954278	      0.10545239	     -0.09050111	     -1.04954278	      0.08684315	     -0.07353166	     -0.88024498	      0.08064007	     -0.04524660	     -0.66864431	      0.07443698	     -0.56561414	     -4.88304592	      0.55199489	      0.00000000	      0.00000000	     19.81797106	      5.14130131	     -6.45868720	     23.93776982	    -24.96216066	     16.56230428	    131.44569697	     86.90655094	      0.69124414	     26.64334998	      7.12366668	    -17.39657940	     49.66972325	     51.15729634	     77.26138907	     11.69596329	     12.32223205
      3.78333333	     -1.20693820	     -0.32631187	     99.56329599	      0.27528097	      0.62630846	      0.96508658	      3.46709846	     -0.96142750	     -3.13813069	      6.93589292	      0.12105417	     22.91875156	      3.67546451	      0.00000000	      2.81542378	     -0.31366083	     -3.76768424	      5.16627346	      0.09016848	     21.66231684	      9.30649669	      0.00000000	     -0.06893238	     -0.45914789	      0.12913753	     -0.12801432	     -0.61066669	      0.13720863	     -0.11324900	     -1.11637217	      0.13720863	     -0.07878281	     -1.11637217	      0.11299534	     -0.06401060	     -0.93629437	      0.10492424	     -0.03938796	     -0.71122008	      0.09685315	     -0.49237707	     -5.19397273	      0.71822420	      0.00000000	      0.00000000	     19.04085614	      5.41248611	     -6.10158088	     22.75476741	    -22.16961593	     16.85362505	    130.82333823	     86.71201868	      2.07764013	     25.58697087	      7.14763425	    -17.57923073	     49.83252013	     51.20410440	     77.24304969	     11.52430930	     12.59060932
      3.80000000	     -1.38203187	     -0.24265569	     99.17168634	      0.27631230	      0.62668142	      0.96529379	      3.42287917	     -1.10650401	     -3.02152620	      6.95450192	      0.12137896	     22.94719637	      4.16900079	      0.00000000	      2.56184126	     -0.13768425	     -3.81228131	      4.94480069	      0.08630305	     21.44532593	      8.74438715	      0.00000000	     -0.06644321	     -0.48605473	      0.18331072	     -0.12339168	     -0.64645279	      0.19476764	     -0.10915955	     -1.18179348	      0.19476764	     -0.07593794	     -1.18179348	      0.16039688	     -0.06169916	     -0.99116281	      0.14893996	     -0.03796565	     -0.75289878	      0.13748304	     -0.47459720	     -5.49834835	      1.01951923	      0.00000000	      0.00000000	     18.63223913	      5.98212956	     -5.73149479	     22.14980343	    -19.35228806	     16.60110981	    129.30905141	     85.71360857	      4.42872440	     24.83607276	      7.16446285	    -17.68408140	     49.84452251	     51.29294139	     76.83644015	     10.95456356	     13.36065119
      3.81666667	     -1.31378349	     -0.23766168	     99.07097945	      0.27672967	      0.62675760	      0.96579732	      3.45704746	     -1.01559330	     -3.00874342	      6.91941896	      0.12076664	     22.85353522	      4.25456269	      0.00000000	      2.57142997	     -0.20292534	     -3.84494987	      4.90667379	      0.08563761	     21.59981325	      8.69308682	      0.00000000	     -0.05673429	     -0.48079519	      0.22689271	     -0.10536124	     -0.63945760	      0.24107351	     -0.09320876	     -1.16900543	      0.24107351	     -0.06484161	     -1.16900543	      0.19853112	     -0.05268346	     -0.98043755	      0.18435033	     -0.03241797	     -0.74475175	      0.17016953	     -0.40524733	     -5.43885135	      1.26190920	      0.00000000	      0.00000000	     18.47981840	      6.02708476	     -5.79127554	     22.05714971	    -17.20974888	     16.52260222	    127.77012504	     85.41271153	      3.99963459	     25.00699940	      7.38131112	    -17.46770660	     49.99566428	     50.91932628	     76.87164061	     10.86021914	     13.57993945
      3.83333333	     -1.75122339	     -0.17750855	     98.27491854	      0.27803448	      0.62685053	      0.96570947	      3.55227036	     -1.47465009	     -2.93935691	      7.23125627	      0.12620923	     23.13842754	      5.36568813	      0.00000000	      2.35102541	      0.22069127	     -5.13999518	      4.83231930	      0.08433988	     21.57610114	      9.00213228	      0.00000000	     -0.04763441	     -0.52479829	      0.34882980	     -0.08846186	     -0.69798172	      0.37063166	     -0.07825857	     -1.27599455	      0.37063166	     -0.05444136	     -1.27599455	      0.30522607	     -0.04423331	     -1.07016867	      0.28342421	     -0.02721830	     -0.81291255	      0.26162235	     -0.34024780	     -5.93662318	      1.94008669	      0.00000000	      0.00000000	     17.80494918	      6.48264120	     -4.55096186	     22.68004445	    -15.28308461	     17.22095510	    125.73256890	     78.84013733	      0.62142344	     26.48221370	      7.33924412	    -17.71384475	     50.26966666	     51.25813942	     75.08417764	     10.25959341	     14.81196101
      3.85000000	     -1.99158619	     -0.23849850	     97.91850653	      0.27861073	      0.62660721	      0.96612318	      3.83336774	     -1.76372473	     -3.12631491	      7.64939434	      0.13350712	     23.34379981	      5.94167883	      0.00000000	      2.41542307	      0.47715811	     -5.88322017	      4.83378245	      0.08436542	     21.75036413	      9.27026417	      0.00000000	     -0.03940970	     -0.54826195	      0.42990145	     -0.07318775	     -0.72918840	      0.45677029	     -0.06474619	     -1.33304411	      0.45677029	     -0.04504134	     -1.33304411	      0.37616377	     -0.03659585	     -1.11801577	      0.34929493	     -0.02251870	     -0.84925776	      0.32242609	     -0.28149954	     -6.20204886	      2.39098288	      0.00000000	      0.00000000	     17.72686398	      6.62914779	     -3.93537965	     23.42896882	    -13.80436890	     17.35554991	    123.91970298	     78.05137469	     -2.03653128	     26.55639515	      7.53558512	    -17.78175881	     50.74792914	     51.24904833	     74.25802246	     10.24265775	     15.06182964
